<?xml version="1.0" encoding="utf-8"?>
<!-- Generator: Adobe Illustrator 23.0.3, SVG Export Plug-In . SVG Version: 6.00 Build 0)  -->
<svg version="1.1" id="Layer_1" xmlns="http://www.w3.org/2000/svg" xmlns:xlink="http://www.w3.org/1999/xlink" x="0px" y="0px"
	 viewBox="0 0 162.4 77.3" style="enable-background:new 0 0 162.4 77.3;" xml:space="preserve">
<style type="text/css">
	.st0{fill:#FEB300;}
	.st1{fill-rule:evenodd;clip-rule:evenodd;fill:#53006A;}
	.st2{fill:none;}
	.st3{fill:#53006A;}
</style>
<path class="st0" d="M107.2,53.6L56.6,3L4.9,55.4h51.7l0,0h100.7v-1.9L107.2,53.6z M56.6,53.5V6.1l47.7,47.6L56.6,53.5z"/>
<path class="st0" d="M107.2,53.6"/>
<polygon class="st1" points="56.5,24.9 72.4,24.9 64,16.5 22.1,16.5 22.1,23.2 23.7,24.9 38.2,24.9 38.2,53.5 56.5,53.5 "/>
<line class="st2" x1="56.6" y1="53.5" x2="38.2" y2="53.5"/>
<line class="st2" x1="157.3" y1="53.5" x2="118.2" y2="53.5"/>
<line class="st2" x1="90.9" y1="53.5" x2="72.5" y2="53.5"/>
<path class="st3" d="M90.9,34.3l6.7,6.6c0,0,4,0.4,5.7,0c3.4-0.8,3.6-1,3.6-1s0.7,3.5,3.2,6.8c0.9,1.2,2.8,3.9,5.1,5.2
	c1.1,0.8,2.1,1.2,2.9,1.6h39.1l0.1-18.5h-19.4l6,6.7V44c0,0.7-3,1.1-3.5,1.1c-1.3,0.2-2.8,0.1-4,0c-3.9-0.4-8.2-1.4-10.5-4.9
	c-1.5-2.4-2-5.5-1-8.2c0.5-1.3,1.2-2.3,2.1-3.3c4.2-4.9,15.6-4.8,15.6-4.8h13v-5.6l-1.3-1.8h-24c-7.9,0.7-14.1,5.1-14.1,5.1
	c-7.6-5.2-16.9-5.1-16.9-5.1h-25l-1.8,1.9v35.2h18.3L90.9,34.3z M90.8,24.6h10.5c0,0,4.9,0.4,4.7,5.2c-0.2,4-5,4.1-5,4.1H90.9
	L90.8,24.6z"/>
</svg>
